<svg width="160" height="44" viewBox="0 0 160 44" fill="none" xmlns="http://www.w3.org/2000/svg">
<rect y="2.75" width="38.5" height="38.5" rx="3.3" fill="url(#paint0_linear_57_2765)"/>
<line y1="-0.33" x2="30.0099" y2="-0.33" transform="matrix(0.791741 0.610857 -0.446825 0.894621 7.02173 10.2527)" stroke="white" stroke-width="0.66"/>
<line y1="-0.33" x2="11.5418" y2="-0.33" transform="matrix(0.77021 -0.63779 0.472911 0.88111 7.04858 23.0994)" stroke="white" stroke-width="0.66"/>
<line y1="-0.33" x2="9.3018" y2="-0.33" transform="matrix(0.849501 0.527587 -0.373422 0.927662 7.04858 23.0994)" stroke="white" stroke-width="0.66"/>
<line y1="-0.33" x2="30.4537" y2="-0.33" transform="matrix(0.809563 -0.587033 0.581576 0.813492 7.13757 34.4622)" stroke="white" stroke-width="0.66"/>
<ellipse cx="7.53797" cy="10.1295" rx="2.9585" ry="2.97956" fill="white"/>
<ellipse cx="7.13819" cy="22.0477" rx="2.9585" ry="2.97956" fill="white"/>
<ellipse cx="7.13819" cy="33.9659" rx="2.9585" ry="2.97956" fill="white"/>
<ellipse cx="23.4096" cy="22.0477" rx="2.9585" ry="2.97956" fill="white"/>
<ellipse cx="31.299" cy="28.0067" rx="2.9585" ry="2.97956" fill="white"/>
<ellipse cx="31.299" cy="16.0887" rx="2.9585" ry="2.97956" fill="white"/>
<ellipse cx="15.5209" cy="28.0067" rx="2.9585" ry="2.97956" fill="white"/>
<ellipse cx="15.5209" cy="16.0887" rx="2.9585" ry="2.97956" fill="white"/>
<path d="M50.6543 31V11.1472H53.5829V28.4938H63.4108V31H50.6543ZM72.1932 31.2534C69.9404 31.2534 68.1663 30.6245 66.8709 29.3667C65.5756 28.0901 64.9279 26.3536 64.9279 24.1571C64.9279 22.7491 65.2095 21.5101 65.7727 20.44C66.3547 19.3511 67.1525 18.5063 68.1663 17.9056C69.1801 17.3049 70.344 17.0045 71.6581 17.0045C73.5542 17.0045 75.0467 17.6146 76.1356 18.8349C77.2244 20.0364 77.7689 21.6978 77.7689 23.8192V24.7766H67.6876C67.8941 27.6302 69.4053 29.057 72.2213 29.057C73.0098 29.057 73.7795 28.9349 74.5305 28.6909C75.3002 28.4468 76.0229 28.0432 76.6988 27.48L77.5436 29.4512C76.9241 30.0144 76.1262 30.4556 75.15 30.7747C74.1738 31.0939 73.1882 31.2534 72.1932 31.2534ZM71.7708 19.0038C70.5881 19.0038 69.6494 19.3699 68.9548 20.1021C68.2602 20.8342 67.8378 21.8105 67.6876 23.0307H75.3753C75.3189 21.7541 74.981 20.7685 74.3615 20.0739C73.742 19.3605 72.8784 19.0038 71.7708 19.0038ZM86.6993 31.2534C84.9722 31.2534 83.6862 30.8123 82.8414 29.9299C81.9966 29.0476 81.5742 27.771 81.5742 26.1002V19.4544H78.899V17.2579H81.5742V13.1184H84.4184V17.2579H88.6705V19.4544H84.4184V25.8749C84.4184 26.8699 84.6249 27.6208 85.0379 28.1277C85.4697 28.6346 86.1643 28.888 87.1217 28.888C87.4221 28.888 87.7131 28.8598 87.9947 28.8035C88.2763 28.7284 88.5579 28.6439 88.8395 28.5501L89.29 30.6902C89.0084 30.8592 88.6142 30.9906 88.1073 31.0845C87.6192 31.1971 87.1499 31.2534 86.6993 31.2534ZM96.4343 31.2534C94.7072 31.2534 93.4212 30.8123 92.5764 29.9299C91.7316 29.0476 91.3092 27.771 91.3092 26.1002V19.4544H88.634V17.2579H91.3092V13.1184H94.1534V17.2579H98.4055V19.4544H94.1534V25.8749C94.1534 26.8699 94.3599 27.6208 94.7729 28.1277C95.2047 28.6346 95.8993 28.888 96.8567 28.888C97.1571 28.888 97.4481 28.8598 97.7297 28.8035C98.0113 28.7284 98.2929 28.6439 98.5745 28.5501L99.025 30.6902C98.7434 30.8592 98.3492 30.9906 97.8423 31.0845C97.3542 31.1971 96.8849 31.2534 96.4343 31.2534ZM107.173 31.2534C104.92 31.2534 103.146 30.6245 101.851 29.3667C100.556 28.0901 99.9079 26.3536 99.9079 24.1571C99.9079 22.7491 100.189 21.5101 100.753 20.44C101.335 19.3511 102.133 18.5063 103.146 17.9056C104.16 17.3049 105.324 17.0045 106.638 17.0045C108.534 17.0045 110.027 17.6146 111.116 18.8349C112.204 20.0364 112.749 21.6978 112.749 23.8192V24.7766H102.668C102.874 27.6302 104.385 29.057 107.201 29.057C107.99 29.057 108.76 28.9349 109.51 28.6909C110.28 28.4468 111.003 28.0432 111.679 27.48L112.524 29.4512C111.904 30.0144 111.106 30.4556 110.13 30.7747C109.154 31.0939 108.168 31.2534 107.173 31.2534ZM106.751 19.0038C105.568 19.0038 104.629 19.3699 103.935 20.1021C103.24 20.8342 102.818 21.8105 102.668 23.0307H110.355C110.299 21.7541 109.961 20.7685 109.341 20.0739C108.722 19.3605 107.858 19.0038 106.751 19.0038ZM115.85 31V17.2579H118.609V19.7078C119.323 18.0746 120.806 17.1641 123.058 16.9763L123.988 16.92L124.185 19.3418L122.467 19.5107C119.97 19.7548 118.722 21.0407 118.722 23.3686V31H115.85ZM132.062 31L140.905 11.1472H143.326L152.197 31H149.212L147.128 26.1565H137.075L135.019 31H132.062ZM142.087 14.3856L138.117 23.791H146.142L142.144 14.3856H142.087ZM154.797 31V11.1472H157.725V31H154.797Z" fill="black"/>
<defs>
<linearGradient id="paint0_linear_57_2765" x1="7.76755" y1="2.74999" x2="66.3625" y2="15.499" gradientUnits="userSpaceOnUse">
<stop stop-color="#2BB5DD"/>
<stop offset="1" stop-color="#0E78CF"/>
</linearGradient>
</defs>
</svg>
